<svg width="107" height="85" viewBox="0 0 107 85" fill="none" xmlns="http://www.w3.org/2000/svg">
<rect x="2" y="52" width="104" height="29" fill="#DB6A4C"/>
<path d="M13.272 46.294C11.116 46.294 9.184 45.944 7.476 45.244C5.768 44.544 4.396 43.508 3.36 42.136C2.352 40.764 1.82 39.112 1.764 37.18H9.408C9.52 38.272 9.898 39.112 10.542 39.7C11.186 40.26 12.026 40.54 13.062 40.54C14.126 40.54 14.966 40.302 15.582 39.826C16.198 39.322 16.506 38.636 16.506 37.768C16.506 37.04 16.254 36.438 15.75 35.962C15.274 35.486 14.672 35.094 13.944 34.786C13.244 34.478 12.236 34.128 10.92 33.736C9.016 33.148 7.462 32.56 6.258 31.972C5.054 31.384 4.018 30.516 3.15 29.368C2.282 28.22 1.848 26.722 1.848 24.874C1.848 22.13 2.842 19.988 4.83 18.448C6.818 16.88 9.408 16.096 12.6 16.096C15.848 16.096 18.466 16.88 20.454 18.448C22.442 19.988 23.506 22.144 23.646 24.916H15.876C15.82 23.964 15.47 23.222 14.826 22.69C14.182 22.13 13.356 21.85 12.348 21.85C11.48 21.85 10.78 22.088 10.248 22.564C9.716 23.012 9.45 23.67 9.45 24.538C9.45 25.49 9.898 26.232 10.794 26.764C11.69 27.296 13.09 27.87 14.994 28.486C16.898 29.13 18.438 29.746 19.614 30.334C20.818 30.922 21.854 31.776 22.722 32.896C23.59 34.016 24.024 35.458 24.024 37.222C24.024 38.902 23.59 40.428 22.722 41.8C21.882 43.172 20.65 44.264 19.026 45.076C17.402 45.888 15.484 46.294 13.272 46.294ZM27.0158 34.24C27.0158 31.832 27.4638 29.718 28.3598 27.898C29.2838 26.078 30.5298 24.678 32.0978 23.698C33.6658 22.718 35.4158 22.228 37.3478 22.228C38.9998 22.228 40.4418 22.564 41.6738 23.236C42.9338 23.908 43.8998 24.79 44.5718 25.882V22.564H51.7538V46H44.5718V42.682C43.8718 43.774 42.8918 44.656 41.6318 45.328C40.3998 46 38.9578 46.336 37.3058 46.336C35.4018 46.336 33.6658 45.846 32.0978 44.866C30.5298 43.858 29.2838 42.444 28.3598 40.624C27.4638 38.776 27.0158 36.648 27.0158 34.24ZM44.5718 34.282C44.5718 32.49 44.0678 31.076 43.0598 30.04C42.0798 29.004 40.8758 28.486 39.4478 28.486C38.0198 28.486 36.8018 29.004 35.7938 30.04C34.8138 31.048 34.3238 32.448 34.3238 34.24C34.3238 36.032 34.8138 37.46 35.7938 38.524C36.8018 39.56 38.0198 40.078 39.4478 40.078C40.8758 40.078 42.0798 39.56 43.0598 38.524C44.0678 37.488 44.5718 36.074 44.5718 34.282ZM67.4917 39.28L72.5737 22.564H80.2177L71.9017 46H63.0397L54.7237 22.564H62.4097L67.4917 39.28ZM105.333 33.904C105.333 34.576 105.291 35.276 105.207 36.004H88.9527C89.0647 37.46 89.5267 38.58 90.3387 39.364C91.1787 40.12 92.2007 40.498 93.4047 40.498C95.1967 40.498 96.4427 39.742 97.1427 38.23H104.787C104.395 39.77 103.681 41.156 102.645 42.388C101.637 43.62 100.363 44.586 98.8227 45.286C97.2827 45.986 95.5607 46.336 93.6567 46.336C91.3607 46.336 89.3167 45.846 87.5247 44.866C85.7327 43.886 84.3327 42.486 83.3247 40.666C82.3167 38.846 81.8127 36.718 81.8127 34.282C81.8127 31.846 82.3027 29.718 83.2827 27.898C84.2907 26.078 85.6907 24.678 87.4827 23.698C89.2747 22.718 91.3327 22.228 93.6567 22.228C95.9247 22.228 97.9407 22.704 99.7047 23.656C101.469 24.608 102.841 25.966 103.821 27.73C104.829 29.494 105.333 31.552 105.333 33.904ZM97.9827 32.014C97.9827 30.782 97.5627 29.802 96.7227 29.074C95.8827 28.346 94.8327 27.982 93.5727 27.982C92.3687 27.982 91.3467 28.332 90.5067 29.032C89.6947 29.732 89.1907 30.726 88.9947 32.014H97.9827Z" fill="white"/>
<path d="M10.5 72C9.80143 68.7033 9.80143 65.2967 10.5 62C10.5918 61.6652 10.7691 61.3601 11.0146 61.1146C11.2601 60.8691 11.5652 60.6918 11.9 60.6C17.2635 59.7115 22.7366 59.7115 28.1 60.6C28.4348 60.6918 28.7399 60.8691 28.9854 61.1146C29.2309 61.3601 29.4082 61.6652 29.5 62C30.1986 65.2967 30.1986 68.7033 29.5 72C29.4082 72.3348 29.2309 72.6399 28.9854 72.8854C28.7399 73.1309 28.4348 73.3082 28.1 73.4C22.7366 74.2887 17.2634 74.2887 11.9 73.4C11.5652 73.3082 11.2601 73.1309 11.0146 72.8854C10.7691 72.6399 10.5918 72.3348 10.5 72Z" stroke="white" stroke-width="1.5" stroke-linecap="round" stroke-linejoin="round"/>
<path d="M18 70L23 67L18 64V70Z" stroke="white" stroke-width="1.5" stroke-linecap="round" stroke-linejoin="round"/>
<path d="M52.608 58.152V61.44H48.144V75H44.04V61.44H39.576V58.152H52.608ZM67.8917 61.608V75H63.7877V73.176C63.3717 73.768 62.8037 74.248 62.0837 74.616C61.3797 74.968 60.5957 75.144 59.7317 75.144C58.7077 75.144 57.8037 74.92 57.0197 74.472C56.2357 74.008 55.6277 73.344 55.1957 72.48C54.7637 71.616 54.5477 70.6 54.5477 69.432V61.608H58.6277V68.88C58.6277 69.776 58.8597 70.472 59.3237 70.968C59.7877 71.464 60.4117 71.712 61.1957 71.712C61.9957 71.712 62.6277 71.464 63.0917 70.968C63.5557 70.472 63.7877 69.776 63.7877 68.88V61.608H67.8917ZM74.9436 63.504C75.3276 62.88 75.8796 62.376 76.5996 61.992C77.3196 61.608 78.1436 61.416 79.0716 61.416C80.1756 61.416 81.1756 61.696 82.0716 62.256C82.9676 62.816 83.6716 63.616 84.1836 64.656C84.7116 65.696 84.9756 66.904 84.9756 68.28C84.9756 69.656 84.7116 70.872 84.1836 71.928C83.6716 72.968 82.9676 73.776 82.0716 74.352C81.1756 74.912 80.1756 75.192 79.0716 75.192C78.1276 75.192 77.3036 75.008 76.5996 74.64C75.8956 74.256 75.3436 73.752 74.9436 73.128V75H70.8396V57.24H74.9436V63.504ZM80.7996 68.28C80.7996 67.256 80.5116 66.456 79.9356 65.88C79.3756 65.288 78.6796 64.992 77.8476 64.992C77.0316 64.992 76.3356 65.288 75.7596 65.88C75.1996 66.472 74.9196 67.28 74.9196 68.304C74.9196 69.328 75.1996 70.136 75.7596 70.728C76.3356 71.32 77.0316 71.616 77.8476 71.616C78.6636 71.616 79.3596 71.32 79.9356 70.728C80.5116 70.12 80.7996 69.304 80.7996 68.28ZM99.7526 68.088C99.7526 68.472 99.7286 68.872 99.6806 69.288H90.3926C90.4566 70.12 90.7206 70.76 91.1846 71.208C91.6646 71.64 92.2486 71.856 92.9366 71.856C93.9606 71.856 94.6726 71.424 95.0726 70.56H99.4406C99.2166 71.44 98.8086 72.232 98.2166 72.936C97.6406 73.64 96.9126 74.192 96.0326 74.592C95.1526 74.992 94.1686 75.192 93.0806 75.192C91.7686 75.192 90.6006 74.912 89.5766 74.352C88.5526 73.792 87.7526 72.992 87.1766 71.952C86.6006 70.912 86.3126 69.696 86.3126 68.304C86.3126 66.912 86.5926 65.696 87.1526 64.656C87.7286 63.616 88.5286 62.816 89.5526 62.256C90.5766 61.696 91.7526 61.416 93.0806 61.416C94.3766 61.416 95.5286 61.688 96.5366 62.232C97.5446 62.776 98.3286 63.552 98.8886 64.56C99.4646 65.568 99.7526 66.744 99.7526 68.088ZM95.5526 67.008C95.5526 66.304 95.3126 65.744 94.8326 65.328C94.3526 64.912 93.7526 64.704 93.0326 64.704C92.3446 64.704 91.7606 64.904 91.2806 65.304C90.8166 65.704 90.5286 66.272 90.4166 67.008H95.5526Z" fill="white"/>
</svg>
